<?xml version="1.0" standalone="no"?>
<!DOCTYPE svg PUBLIC "-//W3C//DTD SVG 20010904//EN"
 "http://www.w3.org/TR/2001/REC-SVG-20010904/DTD/svg10.dtd">
<svg version="1.0" xmlns="http://www.w3.org/2000/svg"
 width="1280.000000pt" height="640.000000pt" viewBox="0 0 1280.000000 640.000000"
 preserveAspectRatio="xMidYMid meet">
<metadata>
Created by potrace 1.15, written by Peter Selinger 2001-2017
</metadata>
<g transform="translate(0.000000,640.000000) scale(0.100000,-0.100000)"
fill="#009688" stroke="none">
<path d="M5095 6310 c-44 -4 -89 -11 -100 -16 -29 -12 -106 -67 -225 -163
-186 -150 -248 -211 -281 -276 -33 -67 -90 -121 -229 -216 -47 -33 -129 -97
-183 -143 -108 -93 -145 -113 -262 -145 -44 -12 -129 -40 -190 -63 -99 -36
-122 -41 -225 -45 -77 -4 -158 0 -244 12 -118 15 -137 20 -225 65 -53 26 -107
60 -121 75 -14 15 -56 49 -95 76 -38 27 -88 62 -110 78 -22 15 -71 48 -110 73
-38 24 -115 74 -170 110 -108 70 -209 127 -265 148 -19 8 -55 27 -78 43 -79
53 -374 86 -512 56 -48 -10 -50 -12 -50 -45 0 -29 -4 -34 -22 -34 -47 0 -126
-31 -255 -99 -10 -5 -52 -26 -93 -46 -72 -35 -118 -58 -150 -77 -8 -5 -51 -26
-96 -48 -44 -22 -92 -49 -106 -62 -14 -13 -62 -52 -106 -88 -44 -36 -88 -78
-96 -95 -9 -16 -36 -57 -61 -90 -24 -33 -44 -71 -45 -85 0 -14 -8 -43 -16 -65
-8 -22 -26 -78 -40 -125 -14 -47 -29 -94 -34 -105 -5 -11 -13 -43 -19 -72 -6
-29 -24 -74 -40 -100 -44 -72 -81 -197 -80 -268 1 -42 -9 -100 -35 -191 -20
-72 -36 -142 -36 -156 0 -14 -4 -38 -10 -54 -5 -16 -18 -78 -29 -139 -11 -60
-22 -121 -25 -135 -26 -115 -29 -171 -22 -465 7 -339 14 -412 45 -480 51 -111
60 -135 76 -222 15 -82 20 -93 39 -93 18 -1 19 -2 5 -13 -8 -7 -21 -28 -28
-47 -6 -19 -23 -51 -36 -70 -13 -19 -39 -69 -57 -110 l-33 -75 -3 -350 c-3
-328 -2 -354 18 -435 12 -47 25 -95 30 -107 5 -13 14 -62 20 -109 7 -53 18
-97 29 -113 10 -14 33 -55 50 -91 18 -36 43 -83 56 -105 14 -22 25 -48 25 -57
0 -11 8 -18 20 -18 10 0 36 -20 57 -46 21 -25 54 -54 73 -65 19 -10 46 -28 60
-39 14 -11 72 -36 130 -55 58 -20 128 -51 155 -70 95 -63 224 -132 272 -144
26 -7 84 -23 128 -36 227 -68 277 -75 485 -74 107 1 238 -4 290 -10 52 -6 170
-15 263 -21 92 -6 193 -15 225 -20 77 -13 518 -13 677 0 70 6 144 18 164 26
20 8 63 42 96 74 77 76 117 90 271 97 l121 6 89 -41 c97 -44 211 -72 301 -72
32 0 92 -5 133 -11 74 -9 182 -2 308 22 67 13 176 68 233 117 24 21 91 71 149
112 58 41 128 96 157 122 29 26 65 54 81 62 46 24 138 35 346 42 270 9 317 -3
641 -165 268 -135 307 -165 345 -271 29 -80 45 -103 82 -122 37 -19 184 -37
346 -43 75 -2 137 -12 207 -30 84 -23 127 -28 274 -32 132 -4 175 -2 181 7 6
10 18 10 56 1 73 -17 240 -1 287 28 20 12 39 30 42 39 3 9 32 38 63 64 82 68
136 62 239 -29 197 -175 217 -183 456 -183 203 0 425 18 454 36 12 8 29 14 38
14 9 0 30 8 48 17 18 9 50 20 72 24 22 3 85 16 140 27 55 11 136 23 180 27
159 13 409 66 474 100 15 7 33 20 40 29 7 8 25 17 40 21 30 6 215 177 253 234
16 23 43 42 91 62 84 35 94 36 142 3 71 -48 191 -55 266 -15 19 10 61 21 94
24 98 9 341 118 460 206 28 20 88 58 135 85 47 27 148 90 225 139 77 50 196
125 265 169 188 120 264 217 434 560 91 183 111 240 151 428 28 130 47 362 47
590 1 107 -2 122 -36 219 -20 58 -46 121 -57 140 -12 20 -29 57 -39 82 -10 25
-45 86 -76 135 -72 111 -96 155 -90 171 5 12 -75 92 -112 112 -12 6 -22 18
-22 26 0 8 -9 20 -20 27 -11 7 -20 19 -20 26 0 25 -125 144 -209 199 -134 89
-180 106 -301 114 -119 8 -271 24 -375 39 -38 6 -115 13 -170 15 -55 3 -181 9
-280 14 -99 5 -369 10 -600 11 l-419 2 -91 40 c-49 22 -124 46 -165 53 -106
19 -114 22 -315 118 -99 47 -205 92 -235 101 -30 8 -94 26 -141 40 -48 14
-162 42 -255 61 -180 38 -257 60 -369 105 -38 16 -87 34 -107 40 -35 11 -38
15 -38 48 -1 29 -10 47 -43 84 -39 45 -44 47 -79 42 -31 -6 -38 -11 -44 -38
-11 -54 -19 -56 -87 -25 -34 16 -88 43 -120 60 -32 17 -116 51 -185 75 -70 25
-159 59 -199 76 l-72 31 24 29 c38 45 33 83 -17 130 -26 24 -51 38 -67 38 -14
0 -60 -22 -101 -49 -72 -47 -76 -49 -107 -36 -40 17 -99 57 -195 133 -40 32
-101 77 -136 101 -41 30 -64 53 -68 70 -20 92 -71 201 -93 201 -6 0 -12 9 -16
19 -5 16 -82 58 -90 49 -1 -2 -11 -26 -21 -55 l-20 -52 -82 71 c-45 39 -82 76
-82 83 0 10 -57 67 -107 106 -7 5 -13 24 -13 41 0 30 -1 30 -40 24 -35 -5 -50
-1 -98 26 -59 34 -159 81 -247 116 -27 11 -75 29 -105 42 -106 43 -278 90
-328 90 -15 0 -68 9 -118 20 -49 11 -96 19 -104 18 -8 0 -51 -4 -95 -8z m210
-133 c44 -9 112 -21 150 -27 67 -12 114 -26 290 -91 44 -16 99 -37 122 -45 52
-19 65 -44 23 -44 -25 0 -30 -4 -30 -23 0 -24 -27 -45 -141 -110 -26 -15 -67
-50 -92 -79 l-46 -53 -48 19 c-100 38 -147 45 -265 35 -62 -5 -135 -13 -163
-18 -27 -5 -83 -14 -122 -20 -131 -19 -475 -204 -598 -321 -16 -15 -64 -44
-105 -65 -41 -20 -84 -44 -95 -54 -11 -10 -41 -30 -66 -45 -25 -14 -81 -59
-125 -99 -143 -131 -198 -174 -270 -210 -39 -20 -111 -70 -160 -113 -49 -42
-118 -90 -153 -107 l-64 -30 -247 -5 c-241 -5 -248 -4 -348 22 -56 14 -132 40
-169 57 -38 17 -91 39 -120 49 -79 28 -162 85 -178 123 -15 36 -64 85 -113
113 -28 16 -34 17 -42 5 -13 -23 -34 1 -61 67 -12 31 -25 62 -29 67 -4 6 -13
28 -20 50 -7 22 -31 72 -55 110 -23 39 -52 88 -63 111 -11 22 -28 46 -36 53
-9 8 -30 40 -48 72 -17 33 -41 69 -53 82 -12 12 -38 54 -59 92 -21 39 -50 82
-64 98 l-26 27 50 0 c81 0 222 -28 252 -48 15 -11 74 -42 132 -70 58 -28 148
-79 200 -114 52 -35 116 -76 142 -91 26 -15 51 -34 55 -41 4 -8 24 -20 43 -29
42 -17 161 -103 237 -170 32 -28 99 -70 157 -99 92 -44 116 -51 242 -70 106
-15 170 -19 269 -15 118 4 140 8 235 42 58 20 149 50 203 65 145 42 210 77
326 176 57 49 136 112 177 140 138 95 211 164 248 234 26 50 55 83 123 142
118 102 239 200 272 218 14 8 37 21 51 30 24 14 133 30 175 24 11 -1 56 -9
100 -17z m913 -367 c12 -11 28 -33 36 -48 12 -23 98 -102 196 -180 22 -18 25
-27 25 -99 l0 -79 -122 -37 -122 -37 -37 25 c-20 14 -43 25 -49 25 -7 0 -46
27 -85 60 -40 34 -82 66 -93 71 -11 6 -40 26 -64 45 -25 19 -55 37 -69 40 -13
3 -24 9 -24 13 0 4 32 22 70 41 39 19 78 43 88 53 9 10 26 23 37 29 19 10 19
9 -1 -12 l-21 -22 44 -66 c25 -37 57 -80 73 -97 16 -16 40 -55 55 -86 14 -31
36 -66 49 -78 l22 -21 17 29 c12 21 22 28 37 24 19 -5 20 0 20 108 -1 80 -5
121 -15 139 -8 14 -14 33 -15 43 0 19 -29 64 -69 110 -29 31 -15 37 17 7z
m-4695 -21 c24 -11 93 -115 117 -177 7 -19 23 -40 35 -48 12 -8 32 -35 45 -61
13 -27 38 -65 57 -86 18 -20 33 -43 33 -50 0 -7 20 -44 45 -81 25 -38 45 -73
45 -78 0 -9 47 -122 75 -180 12 -25 11 -26 -19 -32 -17 -4 -78 -9 -136 -13
-58 -3 -121 -12 -139 -20 -19 -7 -62 -18 -96 -22 -74 -11 -287 -104 -389 -171
-138 -90 -268 -204 -315 -276 -71 -108 -149 -264 -193 -386 -22 -62 -53 -149
-69 -193 -28 -75 -30 -87 -27 -207 4 -142 7 -149 86 -195 55 -32 137 -39 287
-24 61 6 196 14 300 17 105 3 228 12 275 20 47 7 144 18 215 24 72 5 189 14
260 20 72 6 216 13 320 15 105 3 217 10 250 15 33 6 86 10 117 10 48 0 72 8
165 55 l108 54 95 -98 c84 -86 161 -150 281 -231 110 -75 169 -118 218 -159
136 -115 390 -279 511 -330 58 -25 121 -57 140 -72 20 -15 76 -47 125 -72 108
-52 324 -183 495 -299 69 -46 195 -119 280 -162 85 -43 187 -97 225 -119 39
-23 113 -58 165 -79 85 -34 90 -38 50 -34 -73 8 -374 17 -675 21 -284 3 -348
10 -420 47 -53 27 -147 50 -180 44 -18 -4 -62 0 -98 9 -40 9 -162 19 -314 25
-136 5 -291 14 -343 19 -341 35 -1380 53 -1700 31 -144 -10 -202 -10 -260 -1
-41 6 -181 18 -310 25 -129 8 -251 19 -270 25 -19 6 -73 16 -120 21 -47 6
-112 15 -145 20 -33 5 -94 14 -135 21 -73 11 -170 50 -170 68 0 5 -20 22 -45
38 -25 15 -45 31 -45 36 0 4 -20 7 -45 7 -41 0 -61 13 -33 22 15 5 -23 208
-52 272 -11 25 -30 67 -41 94 -18 39 -23 76 -30 217 -13 275 -10 531 6 610 8
39 24 120 35 180 38 209 47 251 79 367 17 64 34 153 37 198 5 82 37 184 68
219 20 22 40 78 71 201 28 110 39 145 60 195 7 17 16 46 20 65 14 67 93 170
182 237 38 29 79 64 91 78 12 14 28 25 36 25 12 0 123 56 206 105 14 8 45 24
70 35 25 12 95 46 155 76 77 38 127 57 165 61 30 3 62 9 70 14 19 11 15 11 43
-2z m4363 -4 c-11 -8 -25 -15 -30 -15 -6 0 -2 7 8 15 11 8 25 15 30 15 6 0 2
-7 -8 -15z m-421 -163 c59 -23 65 -30 65 -83 l0 -49 50 0 c49 0 49 0 56 -37 6
-31 8 -34 15 -18 6 17 8 17 8 3 1 -21 5 -22 32 -8 10 6 19 19 19 28 0 10 6 26
13 36 13 17 15 17 55 -3 51 -26 111 -68 196 -137 35 -29 77 -59 94 -68 24 -12
32 -23 32 -43 0 -43 22 -102 48 -128 20 -21 35 -25 79 -25 32 0 66 7 82 16 25
15 33 14 151 -25 69 -22 163 -59 209 -81 l84 -41 37 36 36 35 18 -54 c15 -43
18 -73 14 -139 l-6 -84 49 -17 c52 -19 69 -16 69 15 0 21 15 26 24 7 10 -25
65 52 72 101 6 39 9 42 14 21 5 -22 12 -25 60 -28 30 -2 59 -7 64 -12 10 -10
90 74 120 126 11 19 23 34 28 34 4 0 53 -20 110 -44 57 -24 141 -56 186 -71
98 -32 335 -143 330 -155 -2 -4 -19 -25 -39 -47 -34 -37 -41 -40 -101 -45
l-66 -6 -64 72 c-35 39 -71 83 -80 97 -9 14 -30 32 -47 39 -17 7 -31 16 -31
20 0 15 -115 90 -137 90 -20 0 -23 -5 -23 -37 0 -34 -1 -35 -17 -20 -17 14
-21 12 -63 -24 l-45 -39 45 -40 c53 -47 41 -35 133 -140 41 -47 93 -119 117
-160 119 -205 122 -216 96 -268 -7 -15 -11 -43 -9 -64 5 -33 8 -36 41 -41 46
-5 108 27 120 63 24 70 42 129 42 141 0 8 4 21 10 29 7 12 12 10 30 -12 11
-15 54 -45 95 -68 40 -22 84 -49 97 -59 l23 -19 -21 -18 c-31 -29 -87 -103
-119 -159 -16 -27 -57 -82 -90 -122 -34 -40 -74 -96 -90 -125 -16 -29 -50 -79
-76 -110 -26 -31 -64 -83 -84 -115 -21 -32 -59 -90 -86 -130 -135 -200 -194
-373 -178 -519 5 -38 8 -95 8 -126 1 -78 27 -132 102 -209 51 -52 86 -77 169
-118 58 -29 132 -62 165 -73 33 -11 78 -30 100 -43 49 -28 241 -90 343 -111
108 -23 220 -94 148 -94 -15 0 -42 -6 -61 -14 -24 -10 -98 -17 -247 -21 -216
-7 -323 0 -423 28 -27 8 -100 17 -160 21 -156 9 -277 31 -370 67 -110 43 -187
65 -273 79 -58 10 -80 19 -114 47 -56 46 -79 54 -152 52 -47 -1 -78 5 -136 29
-41 16 -111 37 -155 47 -44 9 -108 30 -143 46 -37 17 -79 29 -105 29 -30 0
-54 9 -85 30 -24 16 -69 34 -100 40 -138 26 -240 72 -422 191 -111 73 -280
146 -380 165 -19 3 -48 13 -64 21 -65 34 -233 177 -423 361 l-75 73 6 67 c12
119 80 224 177 276 30 16 74 46 99 66 70 58 367 202 515 250 72 24 161 58 198
77 38 19 157 65 265 102 108 38 255 90 325 115 70 25 151 48 180 51 218 20
400 29 632 29 l270 1 75 29 c60 24 88 29 143 27 l67 -2 0 59 0 60 -63 6 c-56
6 -71 4 -147 -26 l-85 -33 -255 -1 c-257 0 -561 -16 -680 -35 -35 -6 -132 -35
-215 -66 -82 -30 -222 -79 -309 -109 -88 -29 -185 -67 -216 -83 -31 -16 -129
-55 -217 -85 -180 -62 -468 -202 -547 -267 -27 -22 -76 -54 -109 -71 -104 -56
-188 -175 -212 -302 -20 -102 -19 -128 5 -185 15 -33 46 -70 108 -127 47 -43
118 -109 157 -145 155 -146 305 -248 363 -249 22 0 50 -9 192 -63 36 -14 113
-57 172 -96 170 -112 309 -177 412 -191 32 -5 74 -19 95 -33 46 -30 95 -47
136 -47 17 0 56 -13 86 -30 30 -16 67 -30 83 -30 42 0 136 -26 231 -65 72 -29
92 -33 139 -28 51 5 58 4 91 -26 47 -41 87 -57 182 -72 43 -6 138 -34 210 -61
142 -51 245 -71 437 -83 60 -4 126 -13 146 -20 79 -28 220 -38 440 -31 172 6
228 11 282 27 36 11 81 19 100 17 32 -3 33 -5 42 -56 7 -43 5 -65 -10 -114
-20 -63 -45 -89 -97 -102 -16 -4 -38 -17 -50 -29 -12 -13 -34 -28 -49 -34 -40
-18 -108 -62 -108 -71 0 -4 16 -18 36 -32 20 -13 32 -26 26 -28 -25 -8 -429
58 -537 89 -124 35 -157 50 -145 64 14 17 -29 45 -69 45 -40 0 -277 52 -412
90 -58 17 -154 35 -214 40 -60 6 -154 22 -210 36 -67 18 -146 29 -242 34 -131
8 -146 11 -205 41 -57 29 -244 89 -388 125 -94 23 -359 131 -459 188 -53 30
-152 82 -221 116 -69 34 -195 108 -280 164 -85 57 -189 122 -230 146 -41 24
-100 60 -130 80 -30 21 -80 48 -110 61 -62 26 -93 43 -131 75 -15 11 -73 40
-130 64 -57 24 -135 64 -172 89 -38 25 -83 55 -100 65 -48 29 -165 115 -222
162 -56 46 -142 109 -255 185 -105 72 -153 111 -248 208 -74 76 -85 84 -103
73 -40 -25 -18 11 49 80 80 83 89 88 214 122 54 14 137 42 184 61 47 20 129
49 182 66 53 17 168 68 257 114 178 91 247 112 465 140 142 18 261 54 450 138
119 53 195 76 410 127 132 31 183 58 209 113 26 54 26 60 -4 124 -42 91 -113
116 -391 133 -93 6 -236 19 -319 30 -82 10 -190 24 -240 30 -173 22 -338 62
-319 79 46 39 100 74 149 96 33 14 74 39 90 54 124 117 470 305 582 317 32 3
79 10 105 16 66 14 226 26 268 20 19 -2 53 -12 75 -20z m1323 -320 c4 -44 -15
-41 -20 3 -2 22 0 34 6 32 6 -2 12 -18 14 -35z m-72 -69 c18 3 31 -3 48 -24
24 -28 61 -121 54 -138 -2 -5 -49 13 -106 40 -56 27 -115 52 -130 56 -24 7
-21 9 23 13 50 5 50 5 47 38 -3 32 -2 33 18 22 12 -7 33 -10 46 -7z m384 -135
c0 -14 -23 -58 -31 -58 -4 0 -9 15 -11 33 -3 17 -9 41 -13 51 -8 19 -8 19 23
0 18 -10 32 -22 32 -26z m-2975 -75 c17 -3 44 -11 60 -18 35 -16 271 -61 365
-70 36 -4 106 -13 155 -21 50 -7 167 -18 260 -24 287 -18 376 -34 396 -73 17
-31 -4 -41 -155 -77 -204 -48 -282 -73 -416 -132 -197 -87 -294 -115 -465
-133 -161 -17 -289 -60 -481 -162 -59 -31 -157 -73 -218 -94 -61 -20 -154 -53
-206 -73 -52 -19 -142 -49 -200 -67 -103 -31 -105 -32 -186 -110 -45 -44 -89
-95 -99 -113 -25 -46 -184 -126 -253 -126 -26 0 -90 -7 -142 -15 -52 -8 -162
-15 -245 -15 -82 0 -204 -5 -270 -10 -344 -25 -407 -31 -490 -44 -49 -8 -164
-17 -255 -20 -91 -3 -240 -11 -332 -17 -152 -12 -171 -11 -203 4 l-35 17 0 94
c0 78 5 107 26 163 14 37 41 112 60 167 35 102 123 281 184 374 35 53 157 159
275 239 85 57 298 150 365 158 30 4 71 13 90 20 19 7 78 16 130 20 52 3 130 9
173 12 49 3 82 1 91 -6 7 -6 27 -8 43 -5 27 5 33 2 53 -31 28 -46 117 -105
213 -141 40 -15 97 -39 127 -54 67 -33 173 -65 260 -79 81 -13 372 -14 504 -1
128 13 208 51 326 155 48 42 113 88 150 106 59 28 220 149 265 199 12 13 25
18 34 14 9 -4 30 -9 46 -11z m-1935 -113 c0 -5 -5 -10 -11 -10 -5 0 -7 5 -4
10 3 6 8 10 11 10 2 0 4 -4 4 -10z m6088 -289 c20 -10 71 -28 112 -40 41 -12
100 -31 130 -41 30 -10 69 -21 85 -24 78 -13 323 -69 378 -85 34 -10 94 -28
133 -40 40 -12 142 -55 228 -96 l155 -75 -33 -49 c-18 -28 -45 -63 -60 -78
-56 -57 -155 -180 -164 -204 -14 -36 14 -64 89 -90 35 -12 68 -25 74 -30 5 -5
26 -9 46 -9 29 0 43 7 63 31 14 17 26 34 26 38 0 4 8 16 18 27 69 76 141 203
143 251 1 65 4 65 133 12 112 -46 124 -49 209 -49 l91 0 -41 -42 c-30 -31 -39
-47 -32 -58 38 -67 89 -199 89 -230 0 -32 -4 -39 -27 -48 -41 -15 -160 -22
-543 -32 -190 -5 -374 -14 -409 -20 -148 -25 -503 -164 -698 -272 -141 -78
-193 -129 -254 -252 -78 -157 -90 -301 -34 -423 30 -67 105 -148 147 -158 12
-2 45 -9 71 -15 42 -9 188 -72 272 -117 17 -9 53 -29 80 -44 28 -14 75 -32
105 -39 30 -7 77 -23 105 -36 27 -13 113 -35 190 -49 77 -14 165 -30 195 -36
30 -6 123 -19 205 -29 240 -29 325 -40 405 -51 86 -12 229 -50 310 -84 30 -12
91 -28 135 -35 44 -6 118 -23 165 -37 125 -37 155 -43 265 -53 224 -22 287
-32 424 -74 47 -14 108 -26 135 -26 62 0 151 -24 121 -33 -30 -8 -112 -24
-190 -38 -38 -6 -90 -17 -115 -25 -25 -7 -85 -18 -135 -25 -87 -10 -152 -27
-335 -84 -77 -24 -103 -27 -275 -30 -105 -2 -203 -9 -219 -15 -16 -6 -109 -14
-207 -19 -97 -5 -183 -13 -190 -17 -8 -4 -76 -11 -154 -15 -77 -4 -194 -13
-260 -18 -153 -13 -415 -14 -486 -1 -78 14 -289 31 -479 39 l-165 7 57 26 c31
15 59 32 63 37 3 6 30 22 58 36 29 13 64 37 79 52 29 32 78 165 78 215 0 51
-26 158 -50 207 -53 107 -170 192 -295 216 -95 19 -284 80 -354 115 -31 16
-76 35 -101 43 -25 8 -91 38 -146 66 -82 41 -111 61 -149 107 l-48 56 -9 107
c-4 58 -9 113 -10 121 -6 52 36 198 79 274 61 105 219 339 263 388 23 26 55
74 71 105 15 32 53 85 82 118 30 33 67 83 82 110 16 28 48 75 72 105 38 48 41
56 28 70 -15 16 -20 40 -10 40 28 0 125 -85 125 -109 0 -11 79 -31 120 -31 38
0 86 24 100 49 5 11 10 46 10 78 0 65 -25 126 -81 204 -33 45 -178 177 -218
199 l-21 10 22 45 c12 25 26 45 30 45 5 0 25 -8 46 -19z m102 -476 c0 -9 -6
-12 -15 -9 -8 4 -12 10 -9 15 8 14 24 10 24 -6z m2805 -94 c88 -5 201 -14 250
-20 241 -31 335 -41 387 -41 63 0 107 -17 207 -80 72 -46 120 -84 140 -112 12
-18 8 -25 -50 -85 -66 -67 -105 -93 -137 -93 -22 0 -123 -77 -202 -153 -31
-30 -67 -57 -80 -60 -14 -3 -56 -17 -95 -32 -38 -14 -97 -30 -130 -36 -125
-21 -297 -79 -365 -123 -71 -47 -96 -60 -308 -165 -78 -39 -152 -71 -163 -71
-31 0 -79 -53 -79 -88 0 -24 7 -33 34 -46 19 -9 43 -16 54 -16 11 0 35 -7 54
-14 19 -8 72 -20 117 -25 129 -16 266 -58 396 -120 66 -32 149 -68 185 -80 36
-11 87 -32 114 -46 27 -14 56 -25 63 -25 24 0 96 -41 171 -97 40 -30 102 -67
137 -83 95 -42 223 -166 225 -217 0 -6 -9 -15 -21 -18 -11 -4 -35 -19 -52 -34
-60 -52 -235 -163 -320 -203 -69 -33 -76 -34 -54 -10 16 17 16 19 -5 30 -29
15 -198 42 -263 42 -27 0 -67 6 -90 14 -102 35 -146 46 -220 56 -44 6 -99 15
-123 21 -23 5 -73 9 -110 9 -67 0 -98 6 -267 53 -49 13 -126 32 -170 40 -44 9
-127 32 -185 52 -119 40 -225 62 -355 75 -49 5 -124 14 -165 20 -41 6 -115 15
-165 20 -49 6 -124 17 -165 25 -41 8 -131 24 -200 36 -69 12 -142 30 -162 40
-20 10 -72 28 -115 40 -43 12 -103 37 -132 56 -30 20 -71 41 -91 48 -20 7 -69
29 -109 50 -41 20 -103 43 -139 50 -74 16 -110 44 -142 111 -53 114 8 337 120
437 79 71 338 197 585 283 170 60 200 64 585 74 468 12 557 20 615 55 97 56
100 161 11 348 -31 64 -56 120 -56 123 0 8 828 -4 1035 -15z m1101 -408 c95
-77 109 -92 110 -117 1 -15 32 -72 70 -129 37 -56 76 -123 85 -148 10 -25 27
-61 38 -81 26 -43 70 -168 82 -228 10 -54 -10 -430 -23 -430 -5 0 -20 12 -34
27 -24 26 -24 26 -47 7 -53 -43 -150 -151 -163 -180 -7 -17 -30 -45 -51 -63
-21 -17 -47 -40 -58 -50 -11 -10 -34 -27 -51 -39 l-32 -22 -15 38 c-20 51
-154 165 -255 217 -42 22 -104 61 -137 85 -86 64 -180 108 -362 171 -44 15
-105 41 -135 58 -113 64 -313 130 -445 147 -52 6 -52 7 -30 24 12 9 78 44 147
77 69 34 150 78 180 98 30 21 66 42 80 47 57 23 227 68 256 68 18 0 69 14 115
31 46 16 104 37 129 44 30 9 71 37 116 77 103 93 144 122 198 143 33 12 73 41
120 86 39 38 73 69 75 69 2 0 19 -12 37 -27z m363 -1238 c-21 -122 -59 -285
-79 -335 -36 -92 -187 -382 -240 -461 -73 -109 -130 -161 -280 -256 -354 -225
-436 -275 -474 -295 -22 -11 -68 -41 -101 -65 -113 -85 -355 -193 -433 -193
-29 -1 -66 -10 -97 -25 -66 -33 -100 -31 -170 6 -33 18 -80 33 -109 36 -46 5
-61 0 -148 -41 -65 -31 -104 -56 -120 -78 -48 -66 -194 -203 -239 -224 -26
-12 -50 -27 -53 -33 -17 -27 -253 -78 -466 -100 -58 -6 -130 -16 -160 -22
-109 -22 -225 -51 -235 -59 -5 -4 -26 -11 -45 -15 -19 -4 -39 -11 -45 -15 -18
-14 -236 -30 -402 -30 -183 0 -222 9 -287 66 -22 20 -66 59 -96 86 -97 87
-212 125 -294 98 -40 -13 -109 -64 -171 -127 -38 -38 -44 -41 -115 -46 -41 -3
-101 0 -134 5 -44 8 -60 8 -66 -2 -6 -9 -48 -11 -171 -7 -137 3 -180 8 -259
30 -68 19 -119 27 -180 27 -47 0 -123 5 -170 11 -47 5 -103 12 -126 15 -39 5
-41 7 -58 59 -19 61 -85 157 -141 202 -20 17 -81 50 -134 73 -53 23 -154 74
-226 113 -93 51 -160 80 -235 102 -104 29 -108 29 -330 28 -341 -3 -414 -21
-545 -134 -38 -32 -111 -89 -164 -126 -52 -37 -113 -83 -135 -102 -68 -57
-156 -92 -259 -104 -110 -13 -142 -13 -317 1 -145 12 -180 20 -309 78 l-84 37
-136 -6 c-193 -9 -245 -27 -354 -126 -59 -53 -71 -60 -124 -67 -113 -16 -695
-10 -903 9 -467 42 -447 41 -655 38 -150 -2 -140 -4 -464 84 -96 26 -226 89
-315 153 -27 20 -94 51 -155 72 -58 20 -128 51 -155 68 -48 31 -136 124 -136
144 0 6 -16 33 -35 59 -19 27 -35 54 -35 61 0 6 -7 19 -15 28 -8 8 -18 47 -24
85 -5 39 -19 97 -31 129 -19 52 -22 83 -23 245 -2 157 -6 199 -25 267 -24 88
-22 105 23 192 10 20 19 66 21 115 6 113 38 277 54 277 4 0 30 -20 56 -44 52
-46 141 -96 172 -96 10 0 22 -3 26 -7 4 -5 49 -13 99 -19 51 -7 135 -17 187
-23 52 -7 124 -19 160 -27 36 -9 169 -22 295 -30 127 -7 266 -19 310 -25 61
-9 125 -9 270 1 215 14 535 14 1095 -2 447 -13 474 -14 600 -28 52 -5 203 -15
335 -20 141 -5 271 -16 314 -25 41 -8 88 -13 105 -10 20 3 56 -4 101 -20 183
-68 170 -66 551 -71 477 -6 775 -26 854 -58 19 -8 72 -20 118 -26 46 -6 102
-18 125 -27 43 -16 85 -21 327 -42 139 -12 506 -55 595 -70 28 -4 100 -22 160
-39 61 -17 163 -41 227 -54 65 -12 118 -28 118 -33 0 -27 214 -102 380 -134
160 -32 491 -71 593 -71 125 0 308 -14 467 -36 118 -16 355 -17 535 -3 66 5
185 13 265 18 80 5 163 14 185 19 22 5 110 12 196 16 86 3 169 11 185 17 16 6
116 12 227 14 168 3 207 7 250 24 109 41 255 80 342 91 50 6 108 15 130 21 49
12 160 36 240 50 33 6 80 17 105 26 77 26 283 125 321 155 20 15 58 37 84 48
27 11 53 27 59 34 14 16 91 75 131 101 201 127 334 238 370 310 14 30 30 55
35 55 5 0 28 20 52 44 23 25 43 44 44 43 1 -1 -2 -24 -7 -52z"/>
<path d="M2680 2081 c-8 -5 -37 -12 -65 -16 -27 -4 -68 -17 -90 -30 -38 -23
-142 -54 -250 -77 -62 -12 -158 -40 -295 -84 -58 -19 -139 -39 -180 -45 -120
-18 -349 -21 -580 -9 -118 6 -291 15 -385 19 -95 5 -197 16 -231 25 -87 22
-192 73 -219 104 -13 15 -25 25 -27 22 -2 -3 -18 -24 -36 -47 -17 -23 -29 -48
-26 -56 12 -32 116 -88 238 -128 75 -24 211 -40 335 -38 53 0 116 -4 141 -9
25 -6 176 -13 335 -17 347 -8 500 5 650 59 97 35 181 59 285 81 36 8 83 20
105 28 22 8 58 17 80 21 22 4 65 20 95 35 30 16 80 31 110 35 74 9 89 19 68
43 -9 10 -18 33 -20 52 -3 37 -14 46 -38 32z"/>
<path d="M900 1515 c0 -52 -7 -55 -40 -20 -30 32 -36 32 -54 -7 -25 -56 -31
-108 -31 -268 0 -142 2 -159 23 -198 12 -23 22 -51 22 -61 0 -38 35 -61 155
-102 66 -23 143 -45 170 -50 28 -4 68 -13 90 -19 109 -29 128 -30 685 -55 75
-3 103 8 149 61 54 61 54 59 77 400 6 95 5 104 -15 133 -27 37 -113 100 -190
138 -52 25 -66 27 -255 34 -198 7 -353 20 -491 39 -38 5 -121 12 -182 14
l-113 6 0 -45z m290 -95 c113 -18 288 -31 492 -39 l197 -8 37 -29 c20 -16 53
-39 73 -51 36 -21 36 -22 35 -85 -1 -35 -5 -116 -9 -181 -6 -100 -10 -122 -29
-143 -26 -30 -41 -31 -366 -16 -177 8 -258 16 -330 33 -52 12 -113 25 -135 29
-83 16 -220 68 -226 87 -3 10 -13 35 -22 55 -13 28 -17 65 -17 149 0 96 4 129
26 206 4 14 162 10 274 -7z"/>
</g>
</svg>
